<svg width="767" height="704" viewBox="0 0 767 704" fill="none" xmlns="http://www.w3.org/2000/svg">
<path d="M103.393 542.299C104.307 542.247 104.883 542.234 105.745 542.627C106.254 543.277 106.224 543.22 106.129 544.044C105.513 544.898 104.931 545.152 103.978 545.565C103.497 545.604 102.845 545.714 102.375 545.623C101.585 545.47 101.426 545.253 101.014 544.643L101.17 543.9C101.785 543.02 102.433 542.743 103.393 542.299Z" fill="black"/>
<path d="M80.7403 541.706C83.1178 541.796 87.1395 541.971 88.9354 543.619C89.2842 544.572 89.1277 544.856 88.9101 545.825C87.3529 545.731 85.7812 545.558 84.2337 545.361C82.7684 545.174 81.2209 544.928 80.2719 543.697C80.1649 542.734 80.3263 542.552 80.7403 541.706Z" fill="black"/>
<path d="M95.4298 548.164C95.6552 548.18 96.0198 548.198 96.2295 548.255C96.8074 548.411 97.0419 548.631 97.2632 549.18C98.2606 551.649 98.451 558.061 97.482 560.565C96.9978 560.562 96.5257 560.5 96.0439 560.449C95.6238 560.111 95.4092 559.875 95.191 559.368C94.2202 557.114 94.4348 550.27 95.4298 548.164Z" fill="black"/>
<path d="M92.0392 526.34C92.3668 526.372 93.0233 526.382 93.3491 526.519C94.225 526.887 94.5388 527.72 94.8047 528.566C95.5217 530.845 97.1405 536.499 96.0161 538.632C95.7278 538.652 95.1161 538.744 94.8114 538.669C94.225 538.523 93.9633 538.18 93.6907 537.669C92.3765 535.21 91.1591 528.931 92.0392 526.34Z" fill="black"/>
<path d="M55.6744 242C56.1187 242.051 56.5854 242.077 56.9705 242.334C59.0408 243.713 60.051 248.534 60.7915 250.896C63.5238 249.749 66.2512 248.558 69.0162 247.494C70.5383 246.908 71.9552 246.288 73.5136 246.98C73.9313 247.678 73.9694 247.684 73.8624 248.483C72.1021 250.419 64.0436 252.545 61.1934 253.678C62.5705 257.407 64.4341 261.62 65.1547 265.512C64.4553 265.949 64.0678 266.229 63.2197 266.27C61.7677 265.339 59.1001 257.027 58.6328 255.027C55.2144 255.99 52.1478 258.258 48.6641 258.978C47.7947 259.158 47.1953 259.175 46.4663 258.66C46.3932 258.109 46.3229 258.127 46.5339 257.604C47.106 256.187 56.0625 252.837 57.9836 251.868C57.3471 248.943 54.5017 244.818 55.6744 242Z" fill="black"/>
<mask id="mask0_405_2" style="mask-type:alpha" maskUnits="userSpaceOnUse" x="0" y="0" width="767" height="704">
<path d="M46.1389 0L733.942 20.4533L766.287 137.466L723.002 358.171H563.656L524.652 435.704L535.592 436.18C534.482 437.606 531.977 440.841 530.836 442.363C529.409 444.266 516.566 467.573 514.188 470.903C512.285 473.566 492.149 512.919 482.318 532.263H472.805L205.009 703.5L0 331.534L46.1389 0Z" fill="#D9D9D9"/>
</mask>
<g mask="url(#mask0_405_2)">
<path d="M151.912 118.663C152.53 118.845 152.868 119.184 153.366 119.58C153.716 120.67 153.614 121.54 153.114 122.564C152.445 123.931 151.749 124.733 150.305 125.291C149.613 124.786 148.625 124.205 148.091 123.549C147.29 122.566 147.433 122.177 147.62 121.038C148.78 119.642 150.248 119.269 151.912 118.663Z" fill="#231F20"/>
<path d="M86.8319 124.472C88.0272 124.776 89.2879 125.178 90.1911 126.075C91.0979 126.975 91.167 127.7 91.2454 128.914C90.6832 130.363 90.086 130.907 88.8585 131.838C87.2457 131.995 86.4974 132.01 85.1491 131.036C84.7362 130.356 84.4422 129.872 84.456 129.04C84.4901 127.076 85.5315 125.812 86.8319 124.472Z" fill="#231F20"/>
<path d="M174.717 123.644C175.424 123.888 175.873 124.049 176.44 124.564C177.002 125.075 176.824 125.233 176.832 125.939C174.128 130.069 165.438 134.791 161.094 137.728L159.833 137.436C159.068 136.605 158.974 136.801 158.943 135.589C160.964 132.137 170.936 125.401 174.717 123.644Z" fill="#231F20"/>
<path d="M132.281 93.8755C132.754 93.8119 133.432 93.7097 133.892 93.6995C135.139 93.6728 135.438 93.6811 136.305 94.4755C137.338 99.5313 137.217 112.42 135.259 117.185C133.519 116.986 132.609 117.018 131.266 115.847C129.994 111.8 130.605 97.7093 132.281 93.8755Z" fill="#231F20"/>
<path d="M88.3903 96.3813L90.3432 96.5168C93.2186 98.3268 104.667 115.748 105.786 119.415C106.256 120.955 105.686 121.964 105.046 123.334L103.515 123.318C101.055 122.106 91.2417 104.559 89.2345 101.127C88.1175 99.2171 87.8143 98.5683 88.3903 96.3813Z" fill="#231F20"/>
<path d="M56.1573 139.424C60.5201 140.039 64.7788 141.331 68.972 142.657C72.3045 143.711 81.1149 145.783 82.6954 148.832C82.6917 150.306 82.1056 151.062 81.3213 152.232C75.1034 149.593 58.6714 146.519 54.543 142.534C54.6005 141.119 55.3258 140.543 56.1573 139.424Z" fill="#231F20"/>
<path d="M116.483 133.114C121.548 132.658 126.416 133.211 131.17 135.066C136.028 136.961 141.572 140.757 143.569 145.753C144.102 147.085 144.157 147.992 143.567 149.287L142.553 149.288C140.268 147.86 138.88 145.314 136.963 143.426C132.543 139.076 126.519 137.581 120.501 137.601L119.826 137.608C117.697 138.102 115.393 138.497 113.524 139.678C98.2553 149.334 105.725 151.326 99.8506 158.026L99.0884 157.692C99.0368 157.448 98.9797 157.206 98.9345 156.962C97.9973 151.922 99.7916 145.537 102.713 141.474C106.101 136.764 110.778 133.922 116.483 133.114Z" fill="#231F20"/>
<path d="M568.144 179.868C569.098 179.966 569.925 179.996 570.76 180.531C571.662 181.108 572.194 182.001 572.26 183.071C572.381 185.001 571.457 186.134 570.195 187.414C568.721 187.452 568.131 187.483 566.851 186.629C566.393 185.895 566.013 185.541 565.977 184.645C565.89 182.481 566.797 181.409 568.144 179.868Z" fill="#FEFEFE"/>
<path d="M556.677 174.763C557.636 175.036 558.632 175.367 559.207 176.224C559.85 177.186 560.025 178.032 559.729 179.162C559.113 181.521 557.825 182.59 555.749 183.701C554.781 183.225 553.649 182.759 553.014 181.845C552.407 180.969 552.256 179.78 552.592 178.776C553.265 176.769 554.944 175.759 556.677 174.763Z" fill="#FEFEFE"/>
<path d="M582.074 185.909C583.605 185.874 585.439 185.791 586.473 187.172C587.121 188.037 587.231 188.822 587.09 189.852C586.841 191.662 585.649 192.677 584.299 193.76C583.459 193.794 582.661 193.815 581.841 193.572C580.647 193.219 580.201 192.365 579.67 191.351C579.605 188.742 580.354 187.775 582.074 185.909Z" fill="#FEFEFE"/>
<path d="M198.818 142.343C199.891 142.227 201.225 141.979 202.278 142.262C204.087 142.748 205.244 145.143 205.865 146.727C207.599 151.155 207.817 156.495 208.79 161.16C210.155 167.714 212.041 174.222 213.867 180.659C219.013 198.799 224.549 216.838 229.153 235.13C233.568 252.669 236.645 270.491 243.194 287.421C246.382 295.661 251.219 303.196 255.952 310.613C258.28 314.262 260.942 317.95 262.605 321.951C262.677 322.124 262.743 322.3 262.812 322.475C285.213 334.059 310.079 334.302 334.526 331.532C341.386 330.754 348.426 330.039 355.125 328.324C355.391 324.668 355.091 320.913 354.97 317.249C350.636 316.844 346.234 317.281 341.945 316.327C337.023 315.233 332.661 312.754 329.959 308.389C322.822 296.857 327.403 273.059 330.099 260.359C328.459 259.467 326.964 258.674 325.597 257.381C324.878 254.692 325.433 251.976 326.313 249.38C327.208 246.737 328.991 243.444 331.825 242.473C333.882 241.77 335.956 242.823 337.829 243.576C342.291 239.136 344.383 236.005 349.869 232.496C346.997 231.49 343.717 230.39 341.298 228.498C339.431 227.038 338.293 225.109 338.096 222.731C337.897 220.329 341.447 202.603 342.795 200.921C345.773 200.696 349.346 204.965 351.786 206.572C353.876 207.948 356.417 209.01 358.771 209.845C366.126 212.456 374.099 212.57 381.794 213.249C389.925 213.966 397.826 215.45 405.425 218.515C413.237 221.665 419.817 226.935 423.142 234.851C427.848 246.05 424.574 261.106 420.096 271.873C414.108 286.272 401.93 303.077 387.117 309.22C387.528 313.835 387.656 318.492 387.883 323.12C419.393 326.415 438.125 333.137 461.699 355.551C469.464 362.935 474.519 370.424 479.999 379.575C491.899 399.449 496.218 412.355 496.806 435.881C481.57 435.4 465.813 438.422 450.477 438.524C449.502 431.666 449.351 424.629 448.933 417.716C448.484 409.456 447.76 401.22 446.762 393.009C445.929 399.933 445.205 406.87 444.989 413.846C444.723 422.41 445.061 431.908 443.687 440.353C452.06 440.361 460.534 439.564 468.896 439.093C488.337 437.998 507.8 436.563 527.245 435.668C533.756 424.707 540.377 413.767 546.323 402.486C550.394 394.76 553.791 386.521 558.327 379.069C559.875 376.528 561.613 373.944 563.971 372.091C568.781 374.516 572.944 377.686 577.438 380.612C582.516 383.92 587.796 386.986 593.089 389.937C638.503 415.336 683.523 441.415 728.15 468.174L789.903 504.158C798.185 509.083 806.931 513.493 814.685 519.248C818.656 522.194 821.437 526.206 822.903 530.935C824.334 535.55 824.526 541.208 823.313 545.899C821.174 554.176 815.92 561.771 812.133 569.36C803.154 587.355 794.409 605.543 784.839 623.232C778.374 635.181 771.242 646.708 764.4 658.436C759.602 666.661 755.144 675.182 750.176 683.288C747.383 687.843 744.243 692.18 741.504 696.768C732.749 711.428 722.817 731.225 712.126 744.179C708.966 748.008 704.941 751.701 700.053 753.035C693.656 754.779 686.509 754.654 680.144 752.852C666.802 749.077 652.153 739.557 639.768 733.069C621.756 723.632 603.511 714.722 585.64 705.003C577.46 700.551 569.474 695.702 561.46 690.959C556.501 688.024 550.74 685.201 546.408 681.414C523.308 697.718 499.029 708.246 471.249 713.594C435.995 720.381 392.742 711.108 361.649 693.459C353.658 688.923 346.632 683.015 339.044 677.883C339.7 683.256 343.209 692.647 342.768 697.353C342.637 698.749 341.198 700.523 340.006 701.254C338.868 701.951 338.485 701.842 337.257 701.623C336.202 700.847 335.566 700.228 335.019 699.018C334.479 697.825 334.132 696.547 333.919 695.257C332.854 688.796 332.197 682.288 330.894 675.857C330.337 673.11 328.964 670.54 328.663 667.755C328.55 666.717 328.642 665.547 329.124 664.602C329.901 663.077 330.781 662.515 332.379 662.066C335.521 661.18 355.292 659.303 357.309 660.677C358.236 661.308 358.951 662.315 359.035 663.457C359.654 671.854 345.945 666.456 342.181 670.157L342.461 671.279C362.127 693.569 398.29 705.459 427.192 709.768C466.423 715.617 504.91 704.204 537.559 682.326C546.55 676.301 554.684 668.976 563.378 662.527C562.229 662.174 561.118 661.769 560.009 661.3C550.97 657.475 542.321 652.291 533.671 647.646C515.486 637.879 497.583 627.902 479.703 617.58C471.345 612.754 463.131 607.687 454.782 602.852C451.144 600.745 446.928 598.921 443.543 596.449C442.925 595.998 442.641 595.536 442.357 594.84C442.822 589.842 468.543 540.542 473.016 531.89C450.124 532.345 427.382 534.156 404.541 535.61C376.004 537.549 347.437 538.863 318.842 539.551C312.51 539.705 298.436 541.101 293.095 539.718C291.454 535.989 290.539 531.841 289.312 527.954C287.587 522.496 285.631 517.096 283.706 511.706C277.596 494.595 267.48 472.328 264.332 454.895C265.874 453.395 267.451 451.933 269.065 450.51C272.889 450.526 277.325 451.13 281.027 450.232L280.104 449.904C278.292 446.248 292.08 389.006 294.191 381.334C296.5 372.941 299.348 364.674 302.063 356.404C291.035 373.095 285.529 392.949 278.175 411.341C275.302 410.632 272.586 409.691 269.852 408.556C268.87 408.155 267.892 407.741 266.92 407.315C265.948 406.89 264.981 406.452 264.02 406.003C263.058 405.553 262.102 405.092 261.152 404.62C260.202 404.147 259.258 403.662 258.32 403.165C257.381 402.67 256.449 402.162 255.524 401.643C254.598 401.124 253.678 400.593 252.765 400.051C251.853 399.51 250.947 398.957 250.048 398.392C249.149 397.828 248.257 397.254 247.372 396.668C246.487 396.082 245.61 395.485 244.739 394.878C243.869 394.27 243.006 393.651 242.151 393.022C241.297 392.394 240.45 391.755 239.61 391.105C238.771 390.455 237.94 389.795 237.117 389.125C236.294 388.455 235.479 387.774 234.673 387.084C233.866 386.394 233.069 385.694 232.28 384.984C231.491 384.274 230.711 383.554 229.939 382.825C229.168 382.096 228.406 381.358 227.653 380.609C226.9 379.862 226.156 379.105 225.422 378.339C224.687 377.572 223.962 376.797 223.247 376.013C222.532 375.23 221.826 374.437 221.131 373.635C220.435 372.834 219.749 372.024 219.073 371.206C218.397 370.387 217.731 369.56 217.076 368.726C216.42 367.891 215.775 367.049 215.14 366.198C214.505 365.347 213.881 364.489 213.268 363.623C212.654 362.757 212.051 361.884 211.459 361.003C210.866 360.122 210.285 359.233 209.715 358.338C209.145 357.444 208.586 356.542 208.038 355.633C207.49 354.724 206.953 353.808 206.428 352.886C205.902 351.964 205.387 351.036 204.885 350.101C204.382 349.166 203.891 348.225 203.412 347.278C202.932 346.332 202.465 345.379 202.009 344.42C201.553 343.462 201.109 342.498 200.676 341.529C200.244 340.56 199.824 339.585 199.415 338.605C184.625 343.94 168.663 346.503 153.386 350.104C133.042 354.899 112.681 360.531 92.0722 364.048C91.8332 363.485 91.6114 362.915 91.4068 362.338C89.689 357.537 88.8052 352.017 87.6246 347.041C84.4046 333.459 81.6066 319.771 78.429 306.174C72.3754 281.373 66.6376 256.499 61.2155 231.552C58.6314 220.154 55.5959 208.742 53.4253 197.266C52.7441 193.663 50.1537 180.685 51.5608 178.117C52.4502 176.493 57.4315 175.177 59.2378 174.649C77.489 169.307 96.0968 166.009 114.612 161.824L198.818 142.343Z" fill="#231F20"/>
<path d="M331.55 245.653C333.406 246.668 334.974 247.939 336.623 249.251C335.007 251.455 333.534 253.677 332.129 256.023C331.266 256.095 330.536 256.01 329.682 255.875L329.142 255.081C329.246 253.02 330.637 251.329 331.455 249.49C332.241 247.722 332.163 247.383 331.55 245.653Z" fill="#FEFEFE"/>
<path d="M82.2557 177.135C83.8233 177.07 85.4066 176.997 86.6157 178.207C87.5198 179.112 87.6774 180.117 87.5023 181.338C87.2341 183.212 85.942 184.244 84.5127 185.266C83.1247 185.031 81.9092 184.706 80.9221 183.614C80.0264 182.623 79.7646 181.655 79.9029 180.326C80.0531 178.889 81.2493 178.026 82.2557 177.135Z" fill="#FEFEFE"/>
<path d="M65.0345 179.398C66.7265 179.876 68.825 180.894 69.6885 182.536C70.2267 183.557 70.4746 184.547 70.0627 185.667C69.5272 187.119 68.3227 187.654 67.0481 188.313C66.9007 188.314 66.7541 188.316 66.6076 188.314C64.9054 188.295 63.818 188.154 62.6042 186.815C61.8071 185.936 61.6651 184.886 61.8255 183.733C62.101 181.756 63.5664 180.556 65.0345 179.398Z" fill="#FEFEFE"/>
<path d="M659.971 601.548C661.509 604.554 661.296 610.82 661.655 614.29L656.661 611.384L651.384 608.268C654.175 605.9 656.932 603.593 659.971 601.548Z" fill="#FEFEFE"/>
<path d="M346.084 248.971C348.761 249.719 352.126 249.961 354.42 251.589C355.437 252.311 356.349 253.371 356.357 254.69C356.375 257.737 352.864 260.445 350.736 262.212C348.934 263.004 347.154 263.773 345.204 262.843C343.018 261.801 342.28 258.748 341.674 256.65C342.605 253.502 343.858 251.391 346.084 248.971Z" fill="#FEFEFE"/>
<path d="M376.304 310.083C377.435 310.168 378.346 310.343 379.424 310.697C381.8 313.207 381.452 326.941 381.979 331.07C384.217 331.892 386.583 332.375 388.897 332.939C388.109 336.645 387.181 339.936 384.76 342.968C380.069 348.843 372.454 350.89 365.33 351.686C363.854 351.908 361.609 351.468 360.114 351.209C357.935 350.833 356.311 350.065 355.086 348.155C352.747 344.509 353.995 339.718 354.852 335.799C356.648 335.173 358.036 334.581 359.291 333.104C363.226 328.474 362.443 321.34 361.992 315.721C366.664 313.327 371.002 310.688 376.304 310.083Z" fill="#FEFEFE"/>
<path d="M338.55 258.642C339.231 260.051 339.893 261.587 340.798 262.866C342.098 264.701 344.309 266.17 346.574 266.371C350.48 266.718 353.668 264.079 356.487 261.762C362.021 269.941 368.595 275.172 377.267 279.876C380.496 278.118 383.571 274.641 387.116 273.731C388.713 273.321 390.832 273.267 392.243 274.272C393.595 275.237 394.224 276.429 394.525 278.027C395.05 280.803 394.096 283.731 392.471 285.981C389.957 289.466 386.525 291.147 382.391 291.904C382.071 292.021 381.705 292.055 381.429 292.256C380.564 292.887 379.459 294.874 378.761 295.776C375.374 300.147 371.675 303.9 366.711 306.452C359.386 310.218 349.106 310.757 341.301 308.256C338.888 307.483 337.424 306.35 336.331 304.021C331.293 293.293 334.729 269.487 338.55 258.642Z" fill="#FEFEFE"/>
<path d="M386.654 279.499C387.109 279.464 387.812 279.39 388.25 279.446C389.573 279.616 389.862 280.003 390.64 280.961C390.738 281.822 390.761 282.337 390.362 283.151C389.474 284.964 388.058 285.402 386.274 285.913C384.729 285.781 383.295 285.722 382.09 284.648C382.095 282.109 384.592 281.771 386.059 280.167C386.26 279.947 386.455 279.722 386.654 279.499Z" fill="#231F20"/>
<path d="M518.424 443.788L520.405 443.717L520.84 444.302C519.715 447.444 517.348 450.351 515.575 453.198C507.214 453.032 498.68 454.003 490.34 454.573C474.032 455.687 457.687 456.941 441.336 457.002C439.866 456.139 438.381 455.097 436.63 455.038C431.29 454.857 425.753 455.599 420.426 456.031C409.425 456.925 398.436 458.015 387.418 458.698C361.737 460.288 336.103 461.526 310.445 463.57C299.575 464.435 288.545 465.049 277.756 466.631L276.55 466.552C274.736 464.959 273.556 460.778 272.593 458.474C280.172 457.129 288.196 457.183 295.886 456.585L341.712 453.028C383.643 449.817 425.611 447.204 467.617 445.188C484.543 444.416 501.477 444.646 518.424 443.788Z" fill="#FEFEFE"/>
<path d="M344.777 205.53C356.634 215.251 364.34 215.419 379.003 216.629C391.278 217.641 407.63 220.102 415.945 230.302C421.011 236.515 421.982 244.153 421.292 251.863C420.017 266.085 412.816 281.309 403.292 291.868C398.998 296.629 394.098 300.707 389.209 304.829L389.254 298.316L389.246 293.25C394.344 290.312 396.887 287.073 398.595 281.501C398.037 278.282 397.347 275.282 395.008 272.848C393.323 271.094 391.184 270.201 388.75 270.257C384.213 270.36 381.038 273.356 378.2 276.514C369.786 271.175 362.834 266.218 359.104 256.693C359.43 254.77 360.373 251.727 359.315 249.934C357.702 247.202 350.769 246.735 347.772 246.035C351.537 242.372 355.267 238.943 359.664 236.041C361.132 236.346 363.039 236.851 364.523 236.81C365.641 236.779 365.913 236.186 366.583 235.415C366.572 235.103 366.671 234.767 366.55 234.479C365.905 232.929 350.605 229.112 348.067 227.902C345.428 226.644 343.588 225.07 341.661 222.897C342.021 217.025 343.317 211.213 344.777 205.53Z" fill="#FEFEFE"/>
<path d="M636.102 480.153L638.033 480.11C639.056 481.025 639.413 481.724 639.685 483.092C640.892 489.169 641.579 495.473 642.726 501.596C648.73 533.29 654.219 565.072 659.193 596.944C655.831 600.246 651.859 603.02 648.129 605.895C628.629 589.97 607.331 575.705 586.631 561.39C578.509 555.631 570.022 550.308 561.812 544.658C547.15 534.665 532.736 524.326 518.571 513.641C532.463 509.418 546.787 506.66 560.681 502.351C575.048 497.896 588.986 492.059 603.345 487.601C614.083 484.266 625.037 482.078 636.102 480.153Z" fill="#FEFEFE"/>
<path d="M496.78 463.142L508.429 462.836C502.241 473.619 495.964 484.662 490.617 495.886C486.168 505.227 482.442 515.34 476.981 524.123C472.469 524.913 467.143 524.353 462.513 524.574L426.996 526.449C405.825 527.548 384.647 528.491 363.462 529.278C341.908 530.23 320.353 531.29 298.772 531.171L297.193 525.95L278.244 473.927C302.845 473.478 327.407 471.616 351.971 470.318L496.78 463.142Z" fill="#FEFEFE"/>
<path d="M319.829 489.812C325.51 489.398 331.64 490.052 336.389 493.458C339.219 495.488 341.397 498.482 341.855 501.992C342.27 505.165 341.438 508.285 339.452 510.794C336.414 514.633 331.873 516.062 327.193 516.594C321.545 516.445 316.604 515.419 311.808 512.323C308.48 510.174 305.504 507.144 304.748 503.119C304.244 500.439 304.824 497.648 306.494 495.476C309.638 491.383 315.032 490.44 319.829 489.812Z" fill="#231F20"/>
<path d="M204.671 164.825L204.952 164.841C205.167 165 205.43 165.11 205.595 165.32C206.351 166.279 208.96 177.94 209.548 180.056C214.179 196.727 219.515 213.237 223.891 229.968C228.871 249.008 232.037 268.403 238.814 286.94C243.056 298.545 249.936 308.819 256.402 319.262C241.986 308.361 225.275 285.433 218.183 268.735C219.954 267.498 221.702 266.261 223.17 264.656C224.736 262.944 227.181 259.286 226.775 256.787C226.579 255.58 226.315 255.463 225.384 254.8C222.845 254.338 219.951 255.229 217.747 256.451C217.032 251.261 215.912 243.077 211.39 239.793C209.908 238.716 208.279 238.368 206.484 238.692C203.397 239.249 200.495 241.442 198.824 244.052C196.111 248.286 195.651 254.255 196.895 259.033C197.791 262.476 199.132 265.516 202.458 267.257C203.306 267.7 203.385 267.774 204.318 267.473C205.354 263.146 199.293 257.845 200.342 251.685C200.828 248.83 202.479 245.518 205.004 243.956C206.086 243.287 207.336 242.888 208.602 243.239C209.474 243.48 210.178 244.441 210.571 245.222C213.08 250.215 213.69 261.129 211.67 266.384C209.994 270.744 202.797 274.05 198.843 275.867C193.906 285.57 193.582 299.441 194.026 310.066C194.394 318.719 196.003 327.383 198.118 335.775C182.717 339.58 167.201 342.91 151.815 346.753C133.149 351.415 113.14 356.927 94.2286 359.875C92.0002 348.288 90.111 336.631 87.6467 325.091C84.6165 310.906 80.6859 296.991 77.3811 282.879C73.0671 264.452 69.3678 245.896 65.3626 227.4C63.2098 217.46 60.4883 207.633 58.5898 197.642C64.4585 196.052 70.67 195.426 76.6032 193.948C102.513 187.341 128.543 181.248 154.694 175.67C171.35 172.208 188.379 169.853 204.671 164.825Z" fill="#FEFEFE"/>
<path d="M167.778 194.835C167.876 194.83 167.974 194.81 168.07 194.822C169.502 194.992 169.53 195.224 170.38 196.33L170.243 197.318C167.995 199.411 150.48 203.017 145.993 204.494C145.805 204.454 145.612 204.431 145.43 204.373C143.893 203.886 143.286 203.491 142.492 202.131C142.59 201.962 142.67 201.778 142.788 201.623C144.737 199.064 163.672 195.789 167.778 194.835Z" fill="#231F20"/>
<path d="M187.116 206.359C187.743 206.282 188.374 206.203 189.006 206.181C190.516 206.127 191.513 206.702 192.575 207.754L192.501 208.2C189.786 210.437 159.41 216.122 153.104 217.43C150.836 218.027 149.474 218.367 147.267 217.394L147.133 216.744C151.48 213.536 180.011 207.997 187.116 206.359Z" fill="#231F20"/>
<path d="M173.253 310.014C174.19 310.09 174.148 310.17 174.862 310.682C175.212 311.962 175.282 312.11 174.867 313.355C173.74 314.355 172.637 314.766 171.208 315.226C166.682 316.684 161.74 317.514 157.101 318.596C148.19 320.696 139.323 322.964 130.498 325.401C124.173 327.092 117.647 328.561 111.619 331.146C110.787 330.921 110.203 330.755 109.726 329.964C109.123 328.963 109.266 328.567 109.673 327.607C110.796 326.692 111.852 326.212 113.226 325.751C115.518 324.983 117.975 324.646 120.315 324.044C127.514 322.19 134.679 320.111 141.885 318.246C152.312 315.546 162.75 312.316 173.253 310.014Z" fill="#231F20"/>
<path d="M175.617 262.549C176.463 262.514 177.042 262.572 177.864 262.715C178.74 263.558 178.979 263.495 179.161 264.754C176.924 266.873 164.395 268.842 160.864 269.758C141.43 274.853 122.125 280.399 102.95 286.395L102.086 286.842C100.856 286.794 100.941 286.745 100.075 285.85C100.033 285.241 99.8454 284.688 100.198 284.146C101.033 282.86 102.905 282.11 104.283 281.583C108.877 279.825 113.937 279.027 118.661 277.624C137.519 272.024 156.581 267.476 175.617 262.549Z" fill="#231F20"/>
<path d="M178.174 285.545C179.498 285.384 180.592 285.408 181.747 286.104L181.72 287.21C180.766 288.942 178.585 290.14 176.76 290.818C170.527 293.136 163.38 294.305 156.886 295.85C140.882 299.66 124.139 303.07 108.629 308.55C108.054 308.611 107.801 308.656 107.179 308.633C106.134 308.593 105.187 308.515 104.546 307.695C104.671 307.421 104.751 307.122 104.92 306.873C107.755 302.703 156.213 291.991 163.773 290.027C168.647 288.76 173.416 287.187 178.174 285.545Z" fill="#231F20"/>
<path d="M170.534 236.226C171.252 236.293 171.561 236.458 172.193 236.779L172.353 237.804C171.735 238.735 171.149 239.259 170.178 239.779C164.279 242.937 157.093 244.642 150.762 246.768C131.553 253.219 112.064 259.533 92.3626 264.295L91.2715 263.639C90.6863 262.534 90.548 262.379 90.6632 261.152C92.3673 259.029 110.942 254.811 114.399 253.846C133.303 248.57 151.655 241.454 170.534 236.226Z" fill="#231F20"/>
<path d="M106.684 202.639C110.302 202.416 113.311 202.22 116.714 203.78C120.808 205.656 123.76 209.366 125.312 213.53C127.131 218.415 127.068 223.687 124.698 228.372C121.855 233.993 116.952 236.448 111.21 238.186C107.123 238.653 103.388 238.561 99.6259 236.64C99.3808 236.514 99.139 236.382 98.9006 236.243C98.6622 236.105 98.4275 235.96 98.1965 235.81C97.9655 235.659 97.7385 235.503 97.5155 235.341C97.2924 235.178 97.0737 235.011 96.8593 234.838C96.6449 234.664 96.4351 234.485 96.2298 234.301C96.0246 234.117 95.8244 233.928 95.629 233.733C95.433 233.539 95.2422 233.34 95.0567 233.136C94.8717 232.932 94.6917 232.723 94.5166 232.51C94.3421 232.296 94.1729 232.079 94.0088 231.857C93.8454 231.635 93.6875 231.41 93.5351 231.18C93.3834 230.949 93.2374 230.716 93.0974 230.478C92.9573 230.241 92.8234 230 92.6956 229.756C92.5678 229.511 92.4461 229.264 92.3306 229.013C92.2157 228.763 92.107 228.51 92.0044 228.254C91.9024 227.997 91.8068 227.739 91.7177 227.478C91.6287 227.217 91.5463 226.954 91.4708 226.689C90.0902 221.953 90.8524 216.763 93.2633 212.491C96.2575 207.182 100.946 204.203 106.684 202.639Z" fill="#231F20"/>
<path d="M566.345 383.426C577.764 391.541 590.092 398.098 602.255 404.999L641.922 427.925L764.253 499.463C758.675 507.174 751.545 514.277 744.995 521.171C732.288 534.435 719.08 547.179 705.369 559.403C691.659 571.627 677.489 583.292 662.86 594.4C658.826 567.034 654.207 539.766 649.004 512.598C646.808 500.82 645.436 488.44 642.276 476.914L641.934 477.033C642.154 476.023 642.18 476.549 641.735 475.468C638.316 474.515 633.368 476.119 629.897 476.834C621.733 478.514 613.58 480.16 605.591 482.56C587.737 487.923 570.467 495.039 552.547 500.325C539.36 504.215 526.253 507.126 512.883 510.186C511.586 510.483 511.183 510.569 510.463 511.7C513.631 517.935 588.531 567.279 601.604 576.4C616.346 586.686 631.471 597.14 645.504 608.36C631.648 619.9 616.479 630.448 601.666 640.732C593.459 646.43 584.461 651.819 577.066 658.542C577.57 658.371 578.07 658.189 578.573 658.013C587.604 654.837 595.813 648.431 603.68 643.061C618.813 632.729 633.45 621.905 648.116 610.926C651.105 612.779 658.487 618.246 662.106 617.487C663.156 617.267 663.691 616.99 664.313 616.121C666.565 612.977 664.37 602.037 663.824 598.157C668.112 595.122 672.22 591.929 676.316 588.642C698.944 571.046 720.903 551.656 740.847 531.066C750.144 521.468 758.646 511.12 767.888 501.526C777.335 507.446 787.103 512.853 796.692 518.543C803.354 522.495 812.892 527.206 814.772 535.417C815.665 539.32 814.863 543.083 813.566 546.784C810.396 555.828 804.708 564.038 800.509 572.65C778.07 618.674 751.662 662.824 725.403 706.759C720.245 715.388 708.748 735.876 701.718 741.754C699.964 743.22 697.884 744.102 695.668 744.614C690.268 745.863 685.595 744.968 680.443 743.269C667.411 738.971 651.939 729.749 639.64 723.35C611.917 708.929 584.485 694.729 557.765 678.459C562.721 675.134 573.339 669.511 576.617 665.303C577.776 663.815 578.12 662.602 577.895 660.752C577.362 659.746 576.912 659 575.911 658.369C571.553 655.627 565.782 653.623 561.077 651.384C551.648 646.883 542.315 642.193 533.077 637.314C505.993 623.066 480.286 606.445 453.075 592.376C460.128 579.433 465.193 565.4 472.005 552.276C495.719 506.691 520.746 461.84 547.085 417.721C553.79 406.516 558.814 394.057 566.345 383.426Z" fill="#FEFEFE"/>
<path d="M587.901 436.995C588.675 437.368 589.409 437.733 590.057 438.313C590.985 439.142 591.074 439.96 591.136 441.121C590.481 442.728 589.55 443.354 588.175 444.361C586.922 444.001 585.632 443.674 584.962 442.418C584.435 441.431 584.536 440.451 584.948 439.444C585.496 438.103 586.69 437.58 587.901 436.995Z" fill="#231F20"/>
<path d="M603.764 448.489C605.006 448.575 606.092 448.765 607.121 449.496C608.153 450.229 608.764 451.201 608.811 452.497C608.881 454.389 607.792 455.52 606.557 456.745C606.346 456.771 606.135 456.806 605.924 456.823C604.201 456.959 603.207 456.752 601.841 455.636C601.369 454.796 601.141 454.321 601.135 453.329C601.121 451.252 602.399 449.873 603.764 448.489Z" fill="#231F20"/>
<path d="M577.629 472.447C578.751 472.521 579.91 472.799 580.854 473.432C582.061 474.243 582.944 475.27 583.105 476.776C583.312 478.698 582.299 479.743 581.096 481.032C579.26 480.967 577.515 480.784 576.288 479.253C575.439 478.193 575.15 477.203 575.335 475.846C575.553 474.236 576.468 473.467 577.629 472.447Z" fill="#231F20"/>
<path d="M730.073 641.239C730.948 641.281 731.851 641.403 732.684 641.686C734.489 642.298 735.97 643.823 736.637 645.589C737.708 648.423 736.878 651.996 735.511 654.582C733.652 658.099 731.371 660.007 727.592 661.126C726.323 661.129 725.205 661.017 723.99 660.619C722.473 660.123 721.431 659.198 720.748 657.739C719.759 655.628 720.563 652.743 721.446 650.749C723.138 646.923 726.139 642.833 730.073 641.239Z" fill="#231F20"/>
<path d="M715.289 671.618C716.27 671.589 717.262 671.62 718.233 671.777C719.821 672.034 720.711 672.607 721.635 673.934C722.841 678.878 714.92 689.531 712.321 694.033C708.085 701.372 699.368 717.167 690.941 719.17C681.813 721.339 658.969 705.031 651.102 699.945C649.57 699.007 647.953 698.077 646.575 696.917C645.387 695.917 645.049 695.069 644.893 693.561C645.368 692.48 645.994 691.385 647.143 690.895C648.608 690.269 650.053 690.472 651.471 691.077C656.019 693.018 660.389 696.407 664.69 698.919C672.452 703.451 680.332 707.249 688.67 710.617C697.833 704.131 703.508 690.975 708.894 681.313C710.77 677.948 712.525 674.353 715.289 671.618Z" fill="#231F20"/>
</g>
<path d="M125.436 450.237C131.164 449.653 173.05 450.068 176.889 452.39C176.977 452.751 177.018 452.872 177.066 453.216C177.428 455.791 176.954 458.817 176.795 461.409L175.537 479.826C175.171 485.676 175.379 491.61 174.924 497.439C174.847 498.414 174.764 499.248 174.155 500.046C171.908 501.451 168.053 500.689 165.481 500.558C165.7 503.195 165.669 505.594 165.154 508.196C164.8 508.636 164.444 509.056 164.042 509.454C162.929 510.557 162.231 510.981 160.67 511.219C154.49 512.159 144.952 511.128 138.485 510.975L90.2881 509.909C80.7891 509.613 71.3089 509.639 61.8068 509.636C55.9439 509.635 49.5973 509.98 43.7966 509.117C42.0007 508.849 40.0052 508.346 38.5478 507.209C36.5959 505.686 35.772 503.053 35.5356 500.683C34.8919 494.221 36.611 486.283 37.195 479.751C37.5172 476.141 37.3957 472.405 37.9415 468.836C38.1283 467.612 38.3864 465.535 39.3246 464.681C41.2958 462.887 45.7219 463.413 48.2378 463.423C48.1157 460.524 47.3643 455.993 48.5419 453.335C50.495 451.794 117.256 450.754 125.436 450.237Z" fill="black"/>
<path d="M138.901 467.006C142.484 468.018 146 468.121 148.393 471.497C149.058 472.435 149.499 473.546 149.219 474.709C148.739 476.707 146.809 478.018 145.175 479.018C143.979 479.303 143.135 479.389 141.956 478.981C138.655 477.834 136.44 475.203 135.033 472.115C135.838 469.673 136.656 468.328 138.901 467.006Z" fill="#FEFEFE"/>
<path d="M129.692 453.281C144.173 452.887 159.417 453.154 173.801 454.854C173.662 463.33 172.756 471.877 172.25 480.346C171.909 486.067 171.994 491.812 171.582 497.516L166.784 497.523C162.441 493.415 158.331 487.63 154.49 482.993C155.388 481.607 156.31 480.23 156.926 478.689C158.237 475.413 158.331 471.987 156.83 468.758C155.343 465.557 152.301 462.91 148.943 461.817C145.119 460.572 140.324 461.074 136.851 463.02C136.662 463.125 136.475 463.235 136.292 463.349C136.108 463.463 135.928 463.582 135.75 463.705C135.573 463.829 135.399 463.957 135.228 464.09C135.057 464.222 134.89 464.359 134.726 464.501C134.563 464.642 134.403 464.788 134.247 464.937C134.091 465.087 133.938 465.24 133.79 465.398C133.642 465.555 133.498 465.717 133.358 465.881C133.219 466.046 133.083 466.215 132.952 466.387C132.821 466.559 132.695 466.734 132.573 466.913C132.45 467.091 132.333 467.273 132.221 467.457C132.108 467.642 132.001 467.83 131.898 468.02C131.795 468.21 131.697 468.403 131.604 468.598C131.511 468.793 131.424 468.991 131.341 469.191C131.259 469.391 131.181 469.593 131.109 469.797C131.037 470 130.97 470.206 130.909 470.413C130.848 470.62 130.792 470.829 130.741 471.04C130.686 471.264 130.636 471.49 130.593 471.717C130.549 471.944 130.512 472.172 130.48 472.401C130.449 472.63 130.423 472.86 130.404 473.09C130.384 473.32 130.37 473.551 130.363 473.782C130.355 474.013 130.353 474.244 130.358 474.475C130.362 474.706 130.373 474.937 130.389 475.168C130.406 475.399 130.428 475.629 130.456 475.858C130.485 476.088 130.519 476.316 130.56 476.543C130.599 476.771 130.646 476.998 130.698 477.223C130.75 477.448 130.808 477.672 130.872 477.894C130.935 478.117 131.005 478.337 131.08 478.556C131.155 478.774 131.236 478.991 131.322 479.205C131.409 479.419 131.501 479.631 131.598 479.841C131.696 480.051 131.798 480.258 131.906 480.462C132.015 480.666 132.128 480.868 132.247 481.066C132.366 481.265 132.49 481.46 132.619 481.651C134.688 484.799 138.256 487.296 141.975 487.991C145.427 488.636 148.782 487.665 151.624 485.689C154.649 488.648 157.258 492.003 159.926 495.28C160.762 496.354 161.537 497.482 162.33 498.588C153.963 499.306 145.179 498.094 136.785 497.852L78.5679 496.409C74.016 496.339 53.9293 496.947 51.0912 495.521C50.1349 494.015 51.5869 461.897 51.0175 456.387L50.9607 455.86C59.6116 455.228 68.3852 455.228 77.0584 454.907C84.9078 454.615 92.7414 454.108 100.593 453.847C110.285 453.523 119.996 453.457 129.692 453.281Z" fill="#FEFEFE"/>
<path d="M66.1714 480.494C71.0279 480.137 83.6328 480.115 88.0679 481.165C89.0551 481.399 89.5725 481.68 90.102 482.541C89.9545 483.308 89.6976 483.54 89.1318 484.061C87.8823 484.438 86.5313 484.144 85.2534 484.005C81.3133 483.89 77.3817 483.301 73.4416 483.132C70.0395 482.987 66.6 483.287 63.2088 483.045C62.4229 482.989 62.1014 483.002 61.4437 482.587C61.3143 481.767 61.3288 481.602 61.6099 480.822C62.7427 480.276 64.8911 480.52 66.1714 480.494Z" fill="black"/>
<path d="M73.9614 468.37C80.317 467.907 86.6768 468.54 93.0355 468.577C95.7613 468.594 98.4872 468.586 101.213 468.551C102.826 468.515 104.54 468.255 106.14 468.364C106.98 468.422 107.274 468.688 107.813 469.288C107.92 470.119 107.959 470.156 107.537 470.87C105.719 471.925 95.6076 471.516 93.1461 471.53C87.3146 471.454 81.5084 471.078 75.6739 471.309C71.5549 471.472 66.32 472.264 62.4119 472.18C61.6122 472.163 60.5894 471.95 59.9057 471.521C59.3042 471.144 59.0842 470.884 58.9688 470.173C60.477 468.757 71.2804 468.556 73.9614 468.37Z" fill="black"/>
<path d="M592.227 509.158C597.013 508.611 602.405 509.477 606.619 511.886C606.875 512.031 607.126 512.183 607.374 512.342C607.622 512.5 607.865 512.665 608.104 512.836C608.343 513.007 608.577 513.185 608.807 513.368C609.037 513.551 609.262 513.741 609.482 513.936C609.702 514.131 609.916 514.332 610.126 514.539C610.335 514.745 610.539 514.956 610.738 515.174C610.936 515.391 611.129 515.612 611.316 515.839C611.502 516.066 611.683 516.298 611.858 516.535C612.033 516.771 612.201 517.012 612.364 517.257C612.525 517.503 612.681 517.752 612.83 518.006C612.979 518.259 613.122 518.516 613.257 518.776C613.393 519.037 613.522 519.302 613.645 519.569C613.766 519.837 613.881 520.107 613.989 520.381C614.097 520.654 614.197 520.93 614.291 521.209C614.384 521.488 614.47 521.769 614.55 522.053C614.628 522.336 614.699 522.621 614.763 522.908C616.315 529.674 614.525 537.179 610.928 543.016C605.506 551.815 598.513 556.087 588.646 558.369C582.671 558.586 577.135 557.969 572.082 554.389C567.718 551.298 565.313 546.523 564.613 541.291C563.638 533.997 565.966 526.002 570.468 520.197C575.931 513.155 583.667 510.261 592.227 509.158Z" fill="#231F20"/>
<path d="M592.346 512.405C596.783 512.231 601.851 513.096 605.437 515.843C608.645 518.301 610.464 522.076 611.005 526.027C611.875 532.384 609.293 538.746 605.397 543.677C601.207 548.981 595.908 552.289 589.13 553.084C584.616 553.124 580.351 552.365 576.671 549.56C572.757 546.578 570.614 542.057 570.1 537.226C569.488 531.487 570.813 525.275 574.505 520.746C579.037 515.186 585.484 513.087 592.346 512.405Z" fill="#FEFEFE"/>
<path d="M588.406 528.786C589.674 528.635 591.231 528.405 592.425 528.979C593.333 529.416 594.182 530.304 594.346 531.311C594.643 533.132 593.908 534.288 592.815 535.653C591.932 535.741 590.831 535.936 589.957 535.815C588.663 535.636 588.107 534.974 587.367 533.988C586.843 531.997 587.413 530.499 588.406 528.786Z" fill="#231F20"/>
<path d="M268.674 111C269.119 111.051 269.585 111.077 269.97 111.334C272.041 112.713 273.051 117.534 273.791 119.896C276.524 118.749 279.251 117.558 282.016 116.494C283.538 115.908 284.955 115.288 286.514 115.98C286.931 116.678 286.969 116.684 286.862 117.483C285.102 119.419 277.044 121.545 274.193 122.678C275.57 126.407 277.434 130.62 278.155 134.512C277.455 134.949 277.068 135.229 276.22 135.27C274.768 134.339 272.1 126.027 271.633 124.027C268.214 124.99 265.148 127.258 261.664 127.978C260.795 128.158 260.195 128.175 259.466 127.66C259.393 127.109 259.323 127.127 259.534 126.604C260.106 125.187 269.063 121.837 270.984 120.868C270.347 117.943 267.502 113.818 268.674 111Z" fill="black"/>
</svg>
