<svg width="121" height="28" viewBox="0 0 121 28" fill="none" xmlns="http://www.w3.org/2000/svg">
<path d="M53.1067 22.3335L49.56 6.00016H52.6633L55.4167 18.7868L58.38 6.00016H61.18L64.1433 18.7868L66.8967 6.00016H69.9767L66.43 22.3335H62.3933L59.78 11.1335L57.1667 22.3335H53.1067ZM75.4762 22.7068C71.9296 22.7068 69.3862 20.1168 69.3862 16.5002C69.3862 12.8835 71.9296 10.2935 75.4762 10.2935C79.0229 10.2935 81.5429 12.8835 81.5429 16.5002C81.5429 20.1168 79.0229 22.7068 75.4762 22.7068ZM75.4762 20.0702C77.2262 20.0702 78.3462 18.6702 78.3462 16.5002C78.3462 14.3302 77.2262 12.9302 75.4762 12.9302C73.7262 12.9302 72.6062 14.3302 72.6062 16.5002C72.6062 18.6702 73.7262 20.0702 75.4762 20.0702ZM82.637 22.3335V5.76683H85.787V22.3335H82.637ZM92.9177 22.3335C90.2577 22.3335 88.951 21.0968 88.951 18.6002V13.3035H86.431V10.6668H88.951V6.91016H92.101V10.6668H95.601V13.3035H92.101V18.2968C92.101 19.2302 92.5677 19.6968 93.501 19.6968H95.601V22.3335H92.9177ZM102.082 22.7068C98.3254 22.7068 95.7821 20.2102 95.7821 16.4768C95.7821 12.8602 98.2321 10.2935 101.639 10.2935C105.069 10.2935 107.472 12.8602 107.472 16.5468V17.4335H99.0254C99.0254 18.9968 100.192 20.0702 101.895 20.0702C103.062 20.0702 103.949 19.5568 104.299 18.6702L107.472 18.9035C107.122 21.1902 104.999 22.7068 102.082 22.7068ZM104.229 15.1468C104.229 13.8168 103.179 12.9302 101.639 12.9302C100.099 12.9302 99.0254 13.8402 99.0254 15.1468H104.229ZM115.977 22.3335L113.62 19.0902L111.263 22.3335H107.483L111.73 16.5002L107.483 10.6668H111.263L113.62 13.9102L115.977 10.6668H119.757L115.51 16.5002L119.757 22.3335H115.977Z" fill="black"/>
<rect width="19.8333" height="28" fill="black"/>
<rect x="19.833" width="19.8333" height="28" fill="black"/>
<path d="M19.8341 13.6743V27.9999H10.0264L19.8341 13.6743Z" fill="#F0F0F0"/>
<path d="M39.6671 13.6743V27.9999H29.8594L39.6671 13.6743Z" fill="#F0F0F0"/>
<path d="M0.000601351 10.4185L0.000602266 -0.00014815L6.53906 -0.000147581L0.000601351 10.4185Z" fill="#F0F0F0"/>
<path d="M19.8336 13.6743L19.8336 -0.000102136L26.3721 -0.000101566L19.8336 13.6743Z" fill="#F0F0F0"/>
</svg>
